<?xml version="1.0" encoding="UTF-8"?>
<svg width="120px" height="120px" viewBox="0 0 120 120" version="1.1" xmlns="http://www.w3.org/2000/svg" xmlns:xlink="http://www.w3.org/1999/xlink">
    <title>Purple 4</title>
    <g id="Purple-4" stroke="none" stroke-width="1" fill="none" fill-rule="evenodd">
        <path d="M58.5035066,36.4987414 L52.9829424,52.0669732 L36.6194492,53.0567935 C35.6216967,53.1171471 35.0172407,53.5703974 34.8674739,54.0353 C34.7146042,54.5098347 34.9540739,55.2580519 35.7565246,55.8997145 L48.9364086,66.4387284 L44.1156245,82.691171 C43.8147766,83.7054279 44.0584827,84.4816254 44.4672447,84.7811648 C44.8629143,85.0711103 45.627676,85.0764862 46.4748275,84.5211707 L60,75.655298 L73.5251725,84.5211707 C74.372324,85.0764862 75.1370857,85.0711103 75.5327553,84.7811648 C75.9415173,84.4816254 76.1852234,83.7054279 75.8843755,82.691171 L71.0635914,66.4387284 L84.2434754,55.8997145 C85.0459261,55.2580519 85.2853958,54.5098347 85.1325261,54.0353 C84.9827593,53.5703974 84.3783033,53.1171471 83.3805508,53.0567935 L67.0170576,52.0669732 L61.4964934,36.4987414 C61.1457401,35.5096017 60.5019076,35.0333104 60,35.0333104 C59.4980924,35.0333104 58.8542599,35.5096017 58.5035066,36.4987414 Z M60,10 C71.4037434,10 81.1255913,17.5191452 84.8663975,28.0683818 C95.6315912,28.7195635 105.30367,35.6406042 108.737423,46.2995816 C112.223944,57.1223596 108.261429,68.6403275 99.6627054,75.5161135 C102.8644,86.3100757 99.3923839,98.2397799 90.1213842,105.033538 C81.0706634,111.665877 69.1122973,111.484204 60,105.511011 C50.8877027,111.484204 38.9293366,111.665877 29.8786158,105.033538 C20.6076161,98.2397799 17.1355997,86.3100757 20.3372946,75.5161135 C11.7385715,68.6403275 7.77605558,57.1223596 11.2625766,46.2995816 C14.6963299,35.6406042 24.3684088,28.7195635 35.1336025,28.0683818 C38.8744087,17.5191452 48.5962566,10 60,10 Z" id="Oval-4-Copy-4" fill="#9982C8" fill-rule="nonzero"></path>
    </g>
</svg>