<?xml version="1.0" encoding="UTF-8"?>
<svg width="120px" height="120px" viewBox="0 0 120 120" version="1.1" xmlns="http://www.w3.org/2000/svg" xmlns:xlink="http://www.w3.org/1999/xlink">
    <title>Red 3</title>
    <defs>
        <circle id="path-1" cx="50" cy="50" r="50"></circle>
    </defs>
    <g id="Red-3" stroke="none" stroke-width="1" fill="none" fill-rule="evenodd">
        <g id="Group" transform="translate(10.000000, 10.000000)">
            <mask id="mask-2" fill="white">
                <use xlink:href="#path-1"></use>
            </mask>
            <use id="Oval" fill="#945454" fill-rule="nonzero" xlink:href="#path-1"></use>
            <path d="M47,16.5 C48.1045695,16.5 49,17.3954305 49,18.5 C49,19.5543618 48.1841222,20.4181651 47.1492623,20.4945143 L47,20.5 L7,20.5 C5.8954305,20.5 5,19.6045695 5,18.5 C5,17.4456382 5.81587779,16.5818349 6.85073766,16.5054857 L7,16.5 L47,16.5 Z" id="Line" fill="#D39F9F" fill-rule="nonzero" mask="url(#mask-2)"></path>
            <path d="M100.980001,63.5001 C102.084515,63.4890548 102.988855,64.3754867 102.999998,65.480001 C103.010443,66.5343101 102.203244,67.4062286 101.169199,67.492922 L101.019999,67.4999 L51.019999,67.9999 C49.9154847,68.0109452 49.0111451,67.1245133 48.9999979,66.019999 C48.9895569,64.9656899 49.7967563,64.0937714 50.830801,64.007078 L50.980001,64.0001 L100.980001,63.5001 Z" id="Line" fill="#D39F9F" fill-rule="nonzero" mask="url(#mask-2)"></path>
            <path d="M98.960008,84.5003999 C100.064357,84.4783129 100.977513,85.3556593 100.9996,86.460008 C101.020683,87.514159 100.222241,88.3941039 99.1891148,88.4911308 L99.039992,88.4996001 L74.039992,88.9996001 C72.9356434,89.0216871 72.0224869,88.1443407 72.0003999,87.039992 C71.9793169,85.985841 72.7777589,85.1058961 73.8108852,85.0088692 L73.960008,85.0003999 L98.960008,84.5003999 Z" id="Line" fill="#D39F9F" fill-rule="nonzero" mask="url(#mask-2)"></path>
        </g>
    </g>
</svg>