<?xml version="1.0" encoding="UTF-8"?>
<svg width="120px" height="120px" viewBox="0 0 120 120" version="1.1" xmlns="http://www.w3.org/2000/svg" xmlns:xlink="http://www.w3.org/1999/xlink">
    <title>Red 2</title>
    <defs>
        <circle id="path-1" cx="50" cy="50" r="50"></circle>
    </defs>
    <g id="Red-2" stroke="none" stroke-width="1" fill="none" fill-rule="evenodd">
        <g id="Group" transform="translate(9.000000, 9.000000)">
            <circle id="Oval-Copy" fill="#5F3838" fill-rule="nonzero" cx="52" cy="52" r="50"></circle>
            <mask id="mask-2" fill="white">
                <use xlink:href="#path-1"></use>
            </mask>
            <use id="Oval" fill="#E38D8D" fill-rule="nonzero" xlink:href="#path-1"></use>
            <path d="M48,17.5 C49.1045695,17.5 50,18.3954305 50,19.5 C50,20.5543618 49.1841222,21.4181651 48.1492623,21.4945143 L48,21.5 L8,21.5 C6.8954305,21.5 6,20.6045695 6,19.5 C6,18.4456382 6.81587779,17.5818349 7.85073766,17.5054857 L8,17.5 L48,17.5 Z" id="Line" fill="#F8D0D0" fill-rule="nonzero" mask="url(#mask-2)"></path>
            <path d="M101.980001,64.5001 C103.084515,64.4890548 103.988855,65.3754867 103.999998,66.480001 C104.010443,67.5343101 103.203244,68.4062286 102.169199,68.492922 L102.019999,68.4999 L52.019999,68.9999 C50.9154847,69.0109452 50.0111451,68.1245133 49.9999979,67.019999 C49.9895569,65.9656899 50.7967563,65.0937714 51.830801,65.007078 L51.980001,65.0001 L101.980001,64.5001 Z" id="Line" fill="#F8D0D0" fill-rule="nonzero" mask="url(#mask-2)"></path>
            <path d="M99.960008,85.5003999 C101.064357,85.4783129 101.977513,86.3556593 101.9996,87.460008 C102.020683,88.514159 101.222241,89.3941039 100.189115,89.4911308 L100.039992,89.4996001 L75.039992,89.9996001 C73.9356434,90.0216871 73.0224869,89.1443407 73.0003999,88.039992 C72.9793169,86.985841 73.7777589,86.1058961 74.8108852,86.0088692 L74.960008,86.0003999 L99.960008,85.5003999 Z" id="Line" fill="#F8D0D0" fill-rule="nonzero" mask="url(#mask-2)"></path>
        </g>
    </g>
</svg>